<svg xmlns="http://www.w3.org/2000/svg" width="25.221" height="32" viewBox="0 0 25.221 32"><g transform="translate(0 0)"><g transform="translate(0 0)"><path d="M49.763,152.4l3.688,1.291.184-2.029a3.206,3.206,0,0,1-1.383-3.458c.645-2.167,2.121-2.536,2.9-1.706a14.545,14.545,0,0,1,2.351-3.319l-5.579,1.383s-1.06,4.2-3.181,5.025a18.707,18.707,0,0,1,1.014,2.812" transform="translate(-45.15 -132.606)" fill="#212727"/><path d="M10.633,269.069a.619.619,0,0,0-.716.268l-3.563,5.827a.708.708,0,0,0,.537,1.075c2.44.226,8.718,1.1,18.318,4.457a.406.406,0,0,0,.5-.559C24.664,278,21.034,272.4,10.633,269.069" transform="translate(-5.788 -249.18)" fill="#2056a7"/><path d="M22.033,168.493a47.545,47.545,0,0,0-1.865-6.9.461.461,0,0,0-.868.312A49.582,49.582,0,0,1,21,168a.1.1,0,0,1-.093.113H19.688a.461.461,0,0,0-.461.461v4.862a.809.809,0,0,1-.263.608,1.027,1.027,0,0,1-.783.256,11.146,11.146,0,0,1-5.132-1.765,34.283,34.283,0,0,0-8.063-3.7,1.077,1.077,0,0,0-1.25.466h0L.172,175.124a1.169,1.169,0,0,0,.888,1.775c2.261.209,8.562,1.06,18.208,4.433a.867.867,0,0,0,.937-.244.861.861,0,0,0,.13-.953,17.446,17.446,0,0,0-4.148-5.239,11.47,11.47,0,0,0,1.923.321q.078.006.156.006a1.946,1.946,0,0,0,1.324-.506,1.732,1.732,0,0,0,.558-1.284v-4.306a.1.1,0,0,1,.1-.1H21.57a.468.468,0,0,0,.209-.046.462.462,0,0,0,.253-.493m-2.586,11.924c-9.671-3.37-16.016-4.225-18.3-4.436a.242.242,0,0,1-.2-.135.245.245,0,0,1,.01-.241l3.563-5.827a.159.159,0,0,1,.182-.07,31.488,31.488,0,0,1,9.764,4.951,17.6,17.6,0,0,1,4.978,5.758" transform="translate(0 -149.381)" fill="#212727"/><path d="M88.1,147.018a.466.466,0,0,1-.095-.01.461.461,0,0,1-.357-.546l.332-1.589a3.01,3.01,0,0,1-1.627-2.151,3.329,3.329,0,0,1,.9-3.251,2.619,2.619,0,0,1,2.807-.522c.368-1.088.815-2.363,1.073-2.988a.461.461,0,0,1,.853.351c-.292.709-.883,2.557-1.228,3.494a.439.439,0,0,1-.172.222.457.457,0,0,1-.517-.04,1.82,1.82,0,0,0-2.225.191,2.448,2.448,0,0,0-.588,2.34,2.12,2.12,0,0,0,1.375,1.608.474.474,0,0,1,.337.541l-.415,1.982a.461.461,0,0,1-.451.367" transform="translate(-79.887 -125.661)" fill="#212727"/><path d="M48.574,227.667a.461.461,0,0,1-.47-.385,7.754,7.754,0,0,0-.815-2.526.461.461,0,0,1,.785-.483,8.456,8.456,0,0,1,.939,2.858.461.461,0,0,1-.379.531.466.466,0,0,1-.061.006" transform="translate(-43.735 -207.515)" fill="#282020"/><path d="M27.026,28.4c-1.547-5.264-6.782-8.361-11.693-6.918-.034.01-.067.022-.1.033-.049-.005-.1-.01-.148-.013-.05.035-.1.072-.147.109-4.659,1.613-7.2,6.9-5.7,12.015a24.812,24.812,0,0,1-1.714,4.487,7.226,7.226,0,0,0,6.408-5.855h0l7.192-2.121h0c6.269,4.871,10.6,1.107,10.6,1.107S29.08,29.729,27.026,28.4" transform="translate(-6.971 -19.572)" fill="#3a85e3"/><path d="M89.068,2.395a.461.461,0,0,1-.277-.092L87.6,1.412a.474.474,0,0,1-.116-.645.461.461,0,0,1,.654-.1l.532.4a.174.174,0,0,0,.267-.077L89.2.312a.474.474,0,0,1,.59-.286.461.461,0,0,1,.276.6L89.5,2.1a.462.462,0,0,1-.43.294" transform="translate(-80.956 -0.001)" fill="#212727"/><path d="M26.418,25.435a.461.461,0,0,0-.23-.355c-.025-.014-2.369-1.359-4.331-2.6a.69.69,0,0,1-.286-.362c-1.757-5.259-7.117-8.313-12.141-6.837l-.03.009-.028,0a.463.463,0,0,0-.349.1l-.06.05c-4.742,1.672-7.381,6.984-6.038,12.2a.793.793,0,0,1-.021.457c-.264.763-.908,2.572-1.567,4.065a.478.478,0,0,0-.015.366.461.461,0,0,0,.43.3h.03a7.939,7.939,0,0,0,6.908-6l6.566-1.929c6.395,4.827,10.957.989,11,.949a.461.461,0,0,0,.156-.393M12.009,15.827A9.353,9.353,0,0,1,20.6,22.12a.207.207,0,0,1-.137.268l-4.614,1.356a.146.146,0,0,1-.183-.105,20.826,20.826,0,0,0-1.215-3.545A9.015,9.015,0,0,0,11.08,15.88a8.209,8.209,0,0,1,.929-.054M8.541,25.744c-.547-1.655-1.933-6.75.715-9.343a.46.46,0,0,1,.439-.117c3.178.854,4.671,5.939,5.084,7.629a.146.146,0,0,1-.1.175l-5.957,1.75a.146.146,0,0,1-.18-.094M7.6,17.11a9.042,9.042,0,0,0-.753,5.231A18.35,18.35,0,0,0,7.651,26a.146.146,0,0,1-.1.186L4,27.225a.207.207,0,0,1-.26-.152A9.348,9.348,0,0,1,7.6,17.11M2.506,31.764c.512-1.24.977-2.536,1.221-3.235a.6.6,0,0,1,.4-.381l3.524-1.035a6.766,6.766,0,0,1-5.146,4.65m13.873-7.215L20.625,23.3a1.281,1.281,0,0,1,1.042.144c1.275.8,2.648,1.611,3.426,2.065-1.243.718-4.45,1.955-8.715-.961" transform="translate(-1.199 -13.804)" fill="#212727"/></g></g></svg>