<svg xmlns="http://www.w3.org/2000/svg" width="98.691" height="100.72" viewBox="0 0 98.691 100.72"><defs><style>.a{fill:#fff;}.b,.c,.g{fill:none;}.b,.e,.g{stroke:#2056a7;}.b,.g{stroke-linecap:round;stroke-linejoin:round;}.b,.e{stroke-width:1.5px;}.d{fill:#d6e3f3;}.e{fill:#d9edfb;}.f{fill:#2056a7;}.g{stroke-width:3px;}</style></defs><g transform="translate(-1471.785 -2592.582)"><g transform="translate(18193.094 21757.465)"><path class="a" d="M56.292,43.084v0Z" transform="translate(-16692.043 -19155.26)"/><line class="b" y2="24.556" transform="translate(-16635.76 -19136.725)"/><path class="c" d="M40.27.5H56.007a8.617,8.617,0,0,1,8.617,8.617v10.57" transform="translate(-16700.381 -19164.633)"/><path class="b" d="M40.27.5H56.007a8.617,8.617,0,0,1,8.617,8.617v10.57" transform="translate(-16700.381 -19164.633)"/><path class="a" d="M16.187,6.169.5,21.856V96.548H76.688V6.169Z" transform="translate(-16721.059 -19161.68)"/><path class="b" d="M16.187,6.169.5,21.856V96.548H76.688V6.169Z" transform="translate(-16721.059 -19161.68)"/><path class="d" d="M16.187,21.856V6.17L.5,21.856Z" transform="translate(-16721.059 -19161.68)"/><path class="b" d="M16.187,21.856V6.17L.5,21.856Z" transform="translate(-16721.059 -19161.68)"/><path class="e" d="M53.653,29.835a18.03,18.03,0,1,1-18.03-18.03,18.03,18.03,0,0,1,18.03,18.03" transform="translate(-16718.092 -19148.529)"/><path class="f" d="M28.612,29.54a5.845,5.845,0,0,1-1.82-4.237V22.87a5.878,5.878,0,1,1,11.755,0V25.3a5.845,5.845,0,0,1-1.82,4.237,8.8,8.8,0,0,1,4.754,7.816H23.858a8.8,8.8,0,0,1,4.754-7.816" transform="translate(-16715.799 -19146.635)"/><g transform="translate(-16679.014 -19120.508)"><line class="g" x2="15.785" y2="15.822" transform="translate(34.635 34.798)"/><path class="a" d="M99.885,69.427A20.055,20.055,0,1,1,79.83,49.372,20.055,20.055,0,0,1,99.885,69.427" transform="translate(-59.775 -49.372)"/><path class="b" d="M99.885,69.427A20.055,20.055,0,1,1,79.83,49.372,20.055,20.055,0,0,1,99.885,69.427Z" transform="translate(-59.775 -49.372)"/><path class="d" d="M82.059,87.4A15.75,15.75,0,1,1,97.808,71.655,15.767,15.767,0,0,1,82.059,87.4" transform="translate(-62.002 -51.603)"/><path class="b" d="M82.059,87.4A15.75,15.75,0,1,1,97.808,71.655,15.767,15.767,0,0,1,82.059,87.4Z" transform="translate(-62.002 -51.603)"/><line class="a" x2="15.785" y2="15.822" transform="translate(34.659 34.798)"/><path class="a" d="M133.823,123.718a2.889,2.889,0,0,1-4.084,0l-10.951-10.951a2.887,2.887,0,0,1,0-4.084l.37-.371a2.889,2.889,0,0,1,4.084,0l10.951,10.951a2.889,2.889,0,0,1,0,4.084Z" transform="translate(-79.614 -69.189)"/><path class="b" d="M133.823,123.718a2.889,2.889,0,0,1-4.084,0l-10.951-10.951a2.887,2.887,0,0,1,0-4.084l.37-.371a2.889,2.889,0,0,1,4.084,0l10.951,10.951a2.889,2.889,0,0,1,0,4.084Z" transform="translate(-79.614 -69.189)"/></g></g></g></svg>