<svg xmlns="http://www.w3.org/2000/svg" width="97.311" height="102.416" viewBox="0 0 97.311 102.416"><defs><style>.a,.f{fill:none;}.a,.c{stroke:#2056a7;stroke-width:1.5px;}.a{stroke-linecap:round;stroke-linejoin:round;}.b{fill:#fff;}.c{fill:#d9edfb;}.d{fill:#2056a7;}.e{fill:#d6e3f3;}</style></defs><g transform="translate(-1032.785 -2591)"><g transform="translate(-28.594 316)"><g transform="translate(1062.129 2275)"><g transform="translate(0 81.924)"><line class="a" y1="19.9" transform="translate(42.106 19.742) rotate(90)"/><path class="a" d="M0,15.549H12.753a6.983,6.983,0,0,0,6.983-6.983V0" transform="translate(15.549) rotate(90)"/></g><g transform="translate(9.221 0)"><rect class="b" width="60.379" height="67.087" transform="translate(10.734 1.342)"/><path class="c" d="M50.813,28.416A16.611,16.611,0,1,1,34.2,11.805,16.61,16.61,0,0,1,50.813,28.416" transform="translate(6.58 -3.307)"/><path class="d" d="M28.238,27.223a4.527,4.527,0,0,1-1.677-3.455V21.785c0-2.647,2.424-4.793,5.415-4.793s5.414,2.146,5.414,4.793v1.983a4.527,4.527,0,0,1-1.677,3.455,7.133,7.133,0,0,1,4.38,6.373H23.858a7.133,7.133,0,0,1,4.38-6.373" transform="translate(8.807 -0.347)"/><path class="e" d="M86.25,65.617H1.007L8.355,51.355H78.9Z" transform="translate(0.014 -14.783)"/><path class="a" d="M86.25,65.617H1.007L8.355,51.355H78.9Z" transform="translate(0.014 -14.783)"/><rect class="a" width="60.379" height="67.087" rx="1" transform="translate(10.734 1.342)"/><rect class="b" width="55.012" height="41.594" rx="4" transform="translate(18.784 30.86)"/><rect class="a" width="55.012" height="41.594" rx="4" transform="translate(18.784 30.86)"/><rect class="b" width="56.353" height="41.594" rx="4" transform="translate(24.151 36.227)"/><rect class="a" width="56.353" height="41.594" rx="4" transform="translate(24.151 36.227)"/><rect class="b" width="56.353" height="41.594" rx="4" transform="translate(8.05 42.936)"/><rect class="a" width="56.353" height="41.594" rx="4" transform="translate(8.05 42.936)"/><path class="e" d="M84.823,71H55.9a12.825,12.825,0,0,1-25.645,0H2.432A1.668,1.668,0,0,0,1,72.679v40.395A1.365,1.365,0,0,0,2.432,114.5H84.823c1.4,0,1.752-.638,1.752-1.426V72.679A1.972,1.972,0,0,0,84.823,71" transform="translate(0.015 -20.418)"/><path class="a" d="M84.823,71H55.9a12.825,12.825,0,0,1-25.645,0H2.432A1.668,1.668,0,0,0,1,72.679v40.395A1.365,1.365,0,0,0,2.432,114.5H84.823c1.4,0,1.752-.638,1.752-1.426V72.679A1.972,1.972,0,0,0,84.823,71Z" transform="translate(0.015 -20.418)"/><rect class="f" width="87.213" height="95.264" transform="translate(0)"/></g></g></g></g></svg>