<svg xmlns="http://www.w3.org/2000/svg" width="107.004" height="100.741" viewBox="0 0 107.004 100.741"><defs><style>.a,.c{fill:#fff;}.b,.g,.i,.k{fill:none;}.b,.c,.d,.g{stroke:#2056a7;}.b,.c,.g,.i{stroke-linecap:round;}.b,.c,.i{stroke-linejoin:round;}.b,.c,.d,.g,.i{stroke-width:1.5px;}.d{fill:#d9edfb;}.e{fill:#2056a7;}.f{fill:#d6e3f3;}.h{fill:#f5ecc9;}.i{stroke:#efc577;}.j{stroke:none;}</style></defs><g transform="translate(-578.25 -2588.25)"><g transform="translate(22742.439 21662.666)"><g transform="translate(-22163.439 -19073.666)"><path class="a" d="M76.886,33.079,43.964,2.44a5.41,5.41,0,0,0-7.349,0L3.193,33.761S1,35.672,1,39.832V84.909a5.2,5.2,0,0,0,5.255,5.149H74.572a5.2,5.2,0,0,0,5.255-5.149V39.832a9.748,9.748,0,0,0-2.941-6.753" transform="translate(7.461 -1)"/><path class="b" d="M76.886,33.079,43.964,2.44a5.41,5.41,0,0,0-7.349,0L3.193,33.761S1,35.672,1,39.832V84.909a5.2,5.2,0,0,0,5.255,5.149H74.572a5.2,5.2,0,0,0,5.255-5.149V39.832A9.748,9.748,0,0,0,76.886,33.079Z" transform="translate(7.333 -1)"/><g transform="translate(17.69 11.194)"><g class="c"><rect class="j" width="59.001" height="71.35"/><rect class="k" x="0.75" y="0.75" width="57.501" height="69.85"/></g><path class="d" d="M50.171,28.095a16.29,16.29,0,1,1-16.29-16.29,16.289,16.289,0,0,1,16.29,16.29" transform="translate(-4.381 3.974)"/><path class="e" d="M28.153,27.026a4.439,4.439,0,0,1-1.644-3.388V21.692c0-2.6,2.378-4.7,5.311-4.7s5.309,2.1,5.309,4.7v1.945a4.439,4.439,0,0,1-1.644,3.388,7,7,0,0,1,4.3,6.25H23.858a7,7,0,0,1,4.3-6.25" transform="translate(-2.319 6.776)"/></g><path class="f" d="M36.862,102.737,1,67.039v46.285a5.792,5.792,0,0,0,5.5,5.584H74.986c2.855,0,4.841-2.681,4.841-5.584V67.039l-35.615,35.7a5.157,5.157,0,0,1-7.349,0" transform="translate(7.333 -29.851)"/><path class="b" d="M36.862,102.737,1,67.039v46.285a5.792,5.792,0,0,0,5.5,5.584H74.986c2.855,0,4.841-2.681,4.841-5.584V67.039l-35.615,35.7A5.157,5.157,0,0,1,36.862,102.737Z" transform="translate(7.333 -29.851)"/><line class="a" y1="19.172" x2="18.02" transform="translate(15.559 64.629)"/><line class="b" y1="19.172" x2="18.02" transform="translate(14.39 65.888)"/><line class="a" x1="18.02" y1="19.172" transform="translate(61.257 64.629)"/><line class="b" x1="18.02" y1="19.172" transform="translate(62.749 65.888)"/><path class="a" d="M102.754,108.144A18.918,18.918,0,1,1,83.836,89.226a18.918,18.918,0,0,1,18.918,18.918" transform="translate(2.75 -28.004)"/><path class="g" d="M18.918,0A18.918,18.918,0,1,1,0,18.918,18.918,18.918,0,0,1,18.918,0Z" transform="translate(67.668 61.222)"/><path class="h" d="M100.381,111.36l-10.52,10.519L83.1,115.123l-2.884,2.884,7.29,7.29,2.352,2.351,2.352-2.351,11.052-11.052Z" transform="translate(-4.397 -38.343)"/><path class="i" d="M100.381,111.36l-10.52,10.519L83.1,115.123l-2.884,2.884,7.29,7.29,2.352,2.351,2.352-2.351,11.052-11.052Z" transform="translate(-4.397 -38.343)"/><line class="b" y1="19.515" transform="translate(41.292 99.241) rotate(90)"/><path class="b" d="M0,15.249H12.507A6.848,6.848,0,0,0,19.355,8.4V0" transform="translate(15.249 79.881) rotate(90)"/></g></g></g></svg>